<svg width="211" height="67" viewBox="0 0 211 67" fill="none" xmlns="http://www.w3.org/2000/svg">
<path d="M193.555 0.251924H16.7566C16.1122 0.251924 15.4755 0.251924 14.8327 0.255224C14.2947 0.258525 13.7609 0.268114 13.2177 0.276185C12.0376 0.289227 10.8603 0.386726 9.69598 0.567836C8.5333 0.752889 7.40704 1.10177 6.35529 1.60267C5.30483 2.10781 4.345 2.76419 3.51061 3.54799C2.67184 4.32959 1.97266 5.23301 1.43996 6.22352C0.905785 7.21205 0.535388 8.27136 0.341559 9.36485C0.145887 10.457 0.040594 11.5617 0.0266252 12.6691C0.0103162 13.1751 0.00859389 13.6828 0 14.1889V52.3378C0.00859389 52.8503 0.0103162 53.3467 0.0266252 53.8594C0.0405983 54.9667 0.145891 56.0713 0.341559 57.1634C0.534852 58.2575 0.905272 59.3175 1.43996 60.3064C1.97242 61.2937 2.6717 62.1934 3.51061 62.9707C4.34184 63.758 5.30229 64.4148 6.35529 64.9161C7.40703 65.4183 8.53317 65.7693 9.69598 65.9572C10.8605 66.1368 12.0377 66.2344 13.2177 66.249C13.7609 66.2602 14.2947 66.2666 14.8327 66.2666C15.4754 66.2699 16.1122 66.2699 16.7566 66.2699H193.555C194.187 66.2699 194.829 66.2699 195.46 66.2666C195.996 66.2666 196.545 66.2602 197.081 66.249C198.258 66.2351 199.433 66.1376 200.595 65.9572C201.762 65.7679 202.892 65.4171 203.949 64.9161C205.001 64.4145 205.961 63.7577 206.791 62.9707C207.628 62.1904 208.329 61.2913 208.868 60.3064C209.398 59.3167 209.765 58.2569 209.956 57.1634C210.152 56.0712 210.261 54.9668 210.282 53.8594C210.289 53.3467 210.289 52.8503 210.289 52.3378C210.303 51.7382 210.303 51.1419 210.303 50.5326V15.9908C210.303 15.3864 210.303 14.7868 210.289 14.1889C210.289 13.6828 210.289 13.1751 210.282 12.669C210.261 11.5615 210.152 10.457 209.956 9.36479C209.765 8.27193 209.398 7.2127 208.868 6.22345C207.783 4.23808 206.063 2.62201 203.949 1.60252C202.892 1.10284 201.762 0.754057 200.595 0.567688C199.434 0.38578 198.258 0.288246 197.081 0.275954C196.545 0.2679 195.996 0.258228 195.46 0.25501C194.829 0.251709 194.187 0.251709 193.555 0.251709V0.251924Z" fill="#A6A6A6"/>
<path d="M14.8422 64.8256C14.3067 64.8256 13.7842 64.8192 13.2529 64.8079C12.1524 64.7945 11.0544 64.7045 9.96804 64.5387C8.95504 64.3749 7.97371 64.0701 7.05642 63.6345C6.14755 63.2024 5.31858 62.6359 4.60128 61.9566C3.87359 61.2853 3.26776 60.5068 2.80779 59.6518C2.34275 58.7912 2.02092 57.8688 1.8535 56.9166C1.6727 55.8935 1.57488 54.859 1.56089 53.822C1.54974 53.4739 1.53516 52.315 1.53516 52.315V14.1886C1.53516 14.1886 1.55069 13.0475 1.56097 12.7122C1.57438 11.6769 1.67163 10.644 1.85188 9.62248C2.01961 8.66772 2.34169 7.74264 2.80698 6.87926C3.26526 6.02484 3.86773 5.24569 4.59103 4.57201C5.31352 3.89193 6.14514 3.32249 7.05556 2.88447C7.97074 2.45021 8.95021 2.14758 9.96117 1.98673C11.0511 1.81931 12.1529 1.7288 13.2573 1.71595L14.843 1.6958H195.453L197.057 1.71676C198.152 1.72897 199.244 1.81868 200.323 1.98511C201.345 2.14798 202.334 2.45272 203.26 2.88931C205.084 3.77205 206.568 5.16862 207.504 6.88329C207.962 7.74071 208.279 8.65824 208.445 9.60475C208.627 10.6346 208.729 11.6757 208.75 12.7195C208.755 13.1869 208.755 13.689 208.755 14.1886C208.769 14.8076 208.769 15.3966 208.769 15.9906V50.5323C208.769 51.132 208.769 51.717 208.755 52.3069C208.755 52.8436 208.755 53.3353 208.748 53.8413C208.728 54.8666 208.628 55.889 208.448 56.9005C208.284 57.8595 207.964 58.7891 207.499 59.6567C207.036 60.5024 206.434 61.2743 205.714 61.9437C204.996 62.6267 204.166 63.1965 203.255 63.6313C202.332 64.0703 201.344 64.3762 200.323 64.5387C199.237 64.7054 198.139 64.7954 197.038 64.8079C196.524 64.8192 195.985 64.8256 195.461 64.8256L193.556 64.8289L14.8422 64.8256Z" fill="black"/>
<path d="M43.5181 33.7577C43.537 32.3801 43.9266 31.0295 44.6507 29.8313C45.3748 28.6332 46.4099 27.6265 47.6596 26.9049C46.8657 25.8401 45.8184 24.9639 44.6008 24.3457C43.3832 23.7275 42.0289 23.3845 40.6454 23.3438C37.6942 23.0529 34.8332 25.0022 33.3293 25.0022C31.7964 25.0022 29.4809 23.3727 26.9876 23.4209C25.3748 23.4698 23.8031 23.9102 22.4255 24.6992C21.0479 25.4882 19.9114 26.5989 19.1267 27.9231C15.7278 33.4495 18.2631 41.5714 21.5189 46.0385C23.1479 48.226 25.0517 50.6694 27.5428 50.5827C29.9805 50.4878 30.8909 49.1229 33.8334 49.1229C36.7486 49.1229 37.6027 50.5827 40.1444 50.5276C42.7601 50.4877 44.4081 48.3305 45.98 46.1223C47.1504 44.5637 48.051 42.8411 48.6485 41.0183C47.1288 40.4147 45.832 39.4043 44.9196 38.1132C44.0073 36.822 43.5199 35.3073 43.5181 33.7577Z" fill="white"/>
<path d="M38.7134 20.4061C40.1396 18.7982 40.8423 16.7316 40.6721 14.645C38.4932 14.8599 36.4805 15.8379 35.035 17.3841C34.3283 18.1395 33.787 19.0182 33.4421 19.9701C33.0972 20.9221 32.9555 21.9285 33.025 22.9319C34.1149 22.9424 35.1931 22.7206 36.1784 22.2831C37.1637 21.8456 38.0305 21.2038 38.7134 20.4061Z" fill="white"/>
<path d="M74.334 45.0455H66.0153L64.0176 50.5851H60.4941L68.3735 30.0898H72.0342L79.9135 50.5851H76.33L74.334 45.0455ZM66.8769 42.4892H73.4708L70.2202 33.4988H70.1292L66.8769 42.4892Z" fill="white"/>
<path d="M96.9295 43.1142C96.9295 47.7577 94.283 50.7411 90.2893 50.7411C89.2776 50.7908 88.2715 50.572 87.3861 50.1096C86.5007 49.6473 85.7719 48.9601 85.283 48.1268H85.2074V55.5281H81.9414V35.642H85.1028V38.1274H85.1629C85.6742 37.2981 86.4154 36.6145 87.3075 36.1493C88.1996 35.6841 89.2094 35.4548 90.2292 35.4857C94.2675 35.4857 96.9295 38.4836 96.9295 43.1142ZM93.5725 43.1142C93.5725 40.0889 91.9077 38.1 89.3677 38.1C86.8722 38.1 85.1937 40.1308 85.1937 43.1142C85.1937 46.125 86.8722 48.1413 89.3677 48.1413C91.9077 48.1413 93.5725 46.1669 93.5725 43.1142Z" fill="white"/>
<path d="M114.441 43.1142C114.441 47.7577 111.795 50.7411 107.801 50.7411C106.789 50.7908 105.783 50.5719 104.898 50.1096C104.012 49.6472 103.284 48.96 102.795 48.1268H102.719V55.528H99.4531V35.642H102.614V38.1274H102.675C103.186 37.2981 103.927 36.6145 104.819 36.1493C105.711 35.6841 106.721 35.4548 107.741 35.4857C111.779 35.4857 114.441 38.4836 114.441 43.1142ZM111.084 43.1142C111.084 40.0889 109.419 38.1 106.879 38.1C104.384 38.1 102.705 40.1308 102.705 43.1142C102.705 46.125 104.384 48.1413 106.879 48.1413C109.419 48.1413 111.084 46.1669 111.084 43.1142H111.084Z" fill="white"/>
<path d="M126.016 44.8741C126.258 46.9065 128.361 48.241 131.234 48.241C133.986 48.241 135.967 46.9064 135.967 45.0738C135.967 43.483 134.772 42.5305 131.944 41.8777L129.116 41.2378C125.108 40.3288 123.248 38.5688 123.248 35.7127C123.248 32.1765 126.529 29.7476 131.189 29.7476C135.8 29.7476 138.962 32.1765 139.068 35.7127H135.771C135.574 33.6674 133.774 32.4328 131.143 32.4328C128.512 32.4328 126.711 33.6819 126.711 35.5C126.711 36.9489 127.861 37.8016 130.674 38.4543L133.079 39.0087C137.556 40.0032 139.417 41.6923 139.417 44.6902C139.417 48.5246 136.164 50.9261 130.992 50.9261C126.152 50.9261 122.884 48.581 122.673 44.8739L126.016 44.8741Z" fill="white"/>
<path d="M146.469 32.1057V35.6419H149.495V38.0709H146.469V46.3086C146.469 47.5883 147.075 48.1847 148.405 48.1847C148.764 48.1788 149.123 48.1551 149.479 48.1137V50.5281C148.881 50.6331 148.273 50.6806 147.665 50.67C144.444 50.67 143.188 49.5337 143.188 46.6357V38.0709H140.874V35.6419H143.187V32.1057H146.469Z" fill="white"/>
<path d="M151.247 43.1144C151.247 38.4129 154.196 35.4585 158.793 35.4585C163.407 35.4585 166.341 38.4128 166.341 43.1144C166.341 47.8288 163.422 50.7702 158.793 50.7702C154.166 50.7702 151.247 47.8288 151.247 43.1144ZM163.014 43.1144C163.014 39.8892 161.44 37.9857 158.793 37.9857C156.147 37.9857 154.575 39.9037 154.575 43.1144C154.575 46.3524 156.147 48.2414 158.793 48.2414C161.44 48.2414 163.014 46.3524 163.014 43.1144Z" fill="white"/>
<path d="M169.031 35.6419H172.146V38.1852H172.222C172.433 37.3909 172.928 36.6889 173.625 36.1972C174.322 35.7056 175.178 35.4543 176.049 35.4855C176.425 35.4843 176.801 35.5227 177.168 35.6V38.4689C176.693 38.3325 176.197 38.2699 175.701 38.2836C175.226 38.2655 174.753 38.344 174.314 38.5139C173.875 38.6837 173.48 38.9407 173.157 39.2673C172.834 39.5939 172.589 39.9824 172.441 40.406C172.293 40.8296 172.244 41.2784 172.297 41.7214V50.5846H169.031L169.031 35.6419Z" fill="white"/>
<path d="M192.23 46.1961C191.791 48.9087 188.978 50.7702 185.379 50.7702C180.75 50.7702 177.877 47.8578 177.877 43.1853C177.877 38.4983 180.765 35.4585 185.241 35.4585C189.644 35.4585 192.412 38.2984 192.412 42.8291V43.88H181.174V44.0653C181.122 44.6152 181.195 45.1692 181.389 45.6905C181.583 46.2118 181.892 46.6884 182.297 47.0887C182.702 47.489 183.193 47.8039 183.737 48.0123C184.281 48.2208 184.867 48.3181 185.454 48.2978C186.226 48.3657 187.001 48.1978 187.663 47.8192C188.325 47.4405 188.839 46.8712 189.129 46.196L192.23 46.1961ZM181.189 41.7363H189.144C189.173 41.2418 189.094 40.747 188.91 40.2829C188.726 39.8188 188.442 39.3954 188.075 39.0393C187.709 38.6832 187.268 38.402 186.78 38.2135C186.292 38.025 185.769 37.9332 185.241 37.9438C184.71 37.9409 184.182 38.0368 183.69 38.2262C183.198 38.4156 182.751 38.6946 182.374 39.0472C181.997 39.3998 181.699 39.819 181.495 40.2805C181.292 40.7421 181.188 41.2368 181.189 41.7363V41.7363Z" fill="white"/>
<path d="M66.4733 14.6616C67.158 14.6154 67.8451 14.7126 68.485 14.946C69.1249 15.1794 69.7017 15.5433 70.1737 16.0114C70.6458 16.4795 71.0013 17.0402 71.2146 17.653C71.428 18.2657 71.4939 18.9153 71.4075 19.5549C71.4075 22.7011 69.5969 24.5096 66.4733 24.5096H62.6855V14.6616H66.4733ZM64.3143 23.1168H66.2914C66.7807 23.1443 67.2703 23.069 67.7247 22.8963C68.179 22.7236 68.5867 22.458 68.918 22.1187C69.2492 21.7795 69.4958 21.3751 69.6396 20.935C69.7835 20.495 69.8211 20.0304 69.7496 19.575C69.8159 19.1214 69.7745 18.6596 69.6284 18.2228C69.4824 17.786 69.2352 17.3849 68.9047 17.0483C68.5742 16.7118 68.1685 16.448 67.7167 16.276C67.2649 16.1039 66.7782 16.0279 66.2914 16.0532H64.3143V23.1168Z" fill="white"/>
<path d="M73.2491 20.7902C73.1993 20.3018 73.2588 19.809 73.4238 19.3434C73.5887 18.8779 73.8554 18.4499 74.2068 18.0868C74.5582 17.7237 74.9865 17.4336 75.4642 17.2351C75.942 17.0366 76.4586 16.9341 76.9811 16.9341C77.5035 16.9341 78.0202 17.0366 78.4979 17.2351C78.9757 17.4336 79.404 17.7237 79.7554 18.0868C80.1068 18.4499 80.3735 18.8779 80.5384 19.3434C80.7033 19.809 80.7628 20.3018 80.7131 20.7902C80.7638 21.2791 80.705 21.7725 80.5405 22.2388C80.376 22.7051 80.1095 23.1339 79.758 23.4977C79.4065 23.8615 78.9779 24.1522 78.4996 24.3511C78.0214 24.55 77.5041 24.6528 76.9811 24.6528C76.458 24.6528 75.9408 24.55 75.4625 24.3511C74.9843 24.1522 74.5556 23.8615 74.2042 23.4977C73.8527 23.1339 73.5862 22.7051 73.4217 22.2388C73.2572 21.7725 73.1984 21.2791 73.2491 20.7902ZM79.1066 20.7902C79.1066 19.1792 78.336 18.2371 76.9837 18.2371C75.6261 18.2371 74.8624 19.1792 74.8624 20.7902C74.8624 22.414 75.6262 23.3488 76.9837 23.3488C78.3361 23.3488 79.1067 22.4076 79.1067 20.7902H79.1066Z" fill="white"/>
<path d="M90.6329 24.5095H89.0128L87.3772 19.0359H87.2537L85.6249 24.5095H84.0202L81.8389 17.0776H83.423L84.8406 22.7486H84.9573L86.5843 17.0776H88.0826L89.7096 22.7486H89.8332L91.2439 17.0776H92.8057L90.6329 24.5095Z" fill="white"/>
<path d="M94.6416 17.0778H96.145V18.2584H96.2618C96.4597 17.8343 96.7937 17.4789 97.217 17.2415C97.6403 17.0042 98.1319 16.8968 98.6233 16.9343C99.0084 16.9071 99.395 16.9617 99.7546 17.0938C100.114 17.226 100.437 17.4325 100.7 17.698C100.964 17.9634 101.16 18.2811 101.274 18.6274C101.389 18.9737 101.419 19.3397 101.362 19.6985V24.5095H99.8007V20.0668C99.8007 18.8725 99.248 18.2785 98.093 18.2785C97.8316 18.2671 97.5706 18.3089 97.328 18.401C97.0853 18.4932 96.8668 18.6335 96.6873 18.8124C96.5078 18.9913 96.3717 19.2045 96.2881 19.4374C96.2046 19.6703 96.1757 19.9175 96.2034 20.1619V24.5096H94.6416L94.6416 17.0778Z" fill="white"/>
<path d="M103.847 14.1765H105.408V24.5095H103.847V14.1765Z" fill="white"/>
<path d="M107.586 20.7903C107.536 20.3019 107.596 19.8091 107.761 19.3435C107.926 18.8779 108.192 18.4499 108.544 18.0868C108.895 17.7237 109.324 17.4336 109.801 17.2351C110.279 17.0366 110.796 16.9341 111.318 16.9341C111.841 16.9341 112.358 17.0366 112.835 17.2351C113.313 17.4336 113.741 17.7237 114.093 18.0868C114.444 18.4499 114.711 18.8779 114.876 19.3435C115.041 19.8091 115.101 20.3019 115.051 20.7903C115.101 21.2792 115.043 21.7727 114.878 22.239C114.714 22.7053 114.447 23.1341 114.095 23.4978C113.744 23.8616 113.315 24.1523 112.837 24.3512C112.359 24.5502 111.841 24.6529 111.318 24.6529C110.795 24.6529 110.278 24.5502 109.8 24.3512C109.322 24.1523 108.893 23.8616 108.541 23.4978C108.19 23.1341 107.923 22.7053 107.759 22.239C107.594 21.7727 107.535 21.2792 107.586 20.7903ZM113.444 20.7903C113.444 19.1793 112.673 18.2373 111.321 18.2373C109.963 18.2373 109.199 19.1793 109.199 20.7903C109.199 22.4142 109.963 23.349 111.321 23.349C112.673 23.349 113.444 22.4077 113.444 20.7903H113.444Z" fill="white"/>
<path d="M116.692 22.4076C116.692 21.0699 117.753 20.2986 119.636 20.189L121.779 20.073V19.4315C121.779 18.6466 121.227 18.2033 120.159 18.2033C119.287 18.2033 118.683 18.5039 118.51 19.0294H116.998C117.157 17.7529 118.436 16.9341 120.231 16.9341C122.215 16.9341 123.334 17.8616 123.334 19.4315V24.5094H121.831V23.4649H121.707C121.456 23.8396 121.104 24.145 120.687 24.35C120.269 24.555 119.801 24.6522 119.33 24.6318C118.998 24.6643 118.662 24.631 118.345 24.5341C118.027 24.4372 117.734 24.2789 117.486 24.0693C117.237 23.8598 117.038 23.6036 116.902 23.3174C116.765 23.0312 116.694 22.7213 116.692 22.4076ZM121.779 21.7726V21.1513L119.847 21.2673C118.757 21.3358 118.263 21.6839 118.263 22.3391C118.263 23.008 118.881 23.3972 119.73 23.3972C119.979 23.4209 120.231 23.3973 120.47 23.3278C120.709 23.2583 120.93 23.1444 121.122 22.9929C121.313 22.8413 121.469 22.6551 121.582 22.4455C121.695 22.2359 121.762 22.007 121.779 21.7726Z" fill="white"/>
<path d="M125.388 20.7904C125.388 18.4421 126.673 16.9544 128.673 16.9544C129.167 16.933 129.658 17.0443 130.088 17.2751C130.517 17.506 130.868 17.847 131.099 18.2583H131.216V14.1765H132.778V24.5095H131.281V23.3353H131.158C130.909 23.7438 130.546 24.0805 130.108 24.3091C129.67 24.5377 129.173 24.6493 128.673 24.632C126.659 24.6321 125.388 23.1444 125.388 20.7904ZM127.001 20.7904C127.001 22.3667 127.792 23.3152 129.115 23.3152C130.432 23.3152 131.245 22.353 131.245 20.7969C131.245 19.2479 130.423 18.272 129.115 18.272C127.801 18.272 127.001 19.227 127.001 20.7904H127.001Z" fill="white"/>
<path d="M139.236 20.7902C139.187 20.3018 139.246 19.809 139.411 19.3434C139.576 18.8779 139.843 18.4499 140.194 18.0868C140.545 17.7237 140.974 17.4336 141.452 17.2351C141.929 17.0366 142.446 16.9341 142.968 16.9341C143.491 16.9341 144.007 17.0366 144.485 17.2351C144.963 17.4336 145.391 17.7237 145.743 18.0868C146.094 18.4499 146.361 18.8779 146.526 19.3434C146.691 19.809 146.75 20.3018 146.7 20.7902C146.751 21.2791 146.692 21.7725 146.528 22.2388C146.363 22.7051 146.097 23.1339 145.745 23.4977C145.394 23.8615 144.965 24.1522 144.487 24.3511C144.009 24.55 143.491 24.6528 142.968 24.6528C142.445 24.6528 141.928 24.55 141.45 24.3511C140.972 24.1522 140.543 23.8615 140.191 23.4977C139.84 23.1339 139.573 22.7051 139.409 22.2388C139.244 21.7725 139.186 21.2791 139.236 20.7902ZM145.094 20.7902C145.094 19.1792 144.323 18.2371 142.971 18.2371C141.613 18.2371 140.85 19.1792 140.85 20.7902C140.85 22.414 141.613 23.3488 142.971 23.3488C144.323 23.3488 145.094 22.4076 145.094 20.7902Z" fill="white"/>
<path d="M148.797 17.0778H150.3V18.2584H150.417C150.615 17.8343 150.949 17.4789 151.372 17.2415C151.796 17.0042 152.287 16.8968 152.779 16.9343C153.164 16.9071 153.55 16.9617 153.91 17.0938C154.269 17.226 154.593 17.4325 154.856 17.698C155.119 17.9634 155.315 18.2811 155.43 18.6274C155.544 18.9737 155.574 19.3397 155.518 19.6985V24.5095H153.956V20.0668C153.956 18.8725 153.403 18.2785 152.248 18.2785C151.987 18.2671 151.726 18.3089 151.483 18.401C151.241 18.4932 151.022 18.6335 150.843 18.8124C150.663 18.9913 150.527 19.2045 150.443 19.4374C150.36 19.6703 150.331 19.9175 150.359 20.1619V24.5096H148.797V17.0778Z" fill="white"/>
<path d="M164.343 15.2275V17.1117H166.058V18.3471H164.343V22.1686C164.343 22.9471 164.685 23.288 165.462 23.288C165.661 23.2874 165.86 23.2761 166.058 23.2541V24.4759C165.777 24.523 165.493 24.548 165.208 24.5508C163.471 24.5508 162.78 23.977 162.78 22.5442V18.3471H161.523V17.1116H162.78V15.2275H164.343Z" fill="white"/>
<path d="M168.189 14.1765H169.738V18.272H169.861C170.069 17.844 170.412 17.4865 170.844 17.2483C171.275 17.0101 171.775 16.9026 172.274 16.9407C172.657 16.9211 173.04 16.9812 173.396 17.1166C173.751 17.252 174.07 17.4594 174.331 17.724C174.591 17.9887 174.786 18.304 174.901 18.6475C175.017 18.991 175.051 19.3542 174.999 19.7113V24.5095H173.436V20.0731C173.436 18.8861 172.847 18.2849 171.744 18.2849C171.475 18.2642 171.205 18.2989 170.953 18.3864C170.7 18.474 170.471 18.6123 170.281 18.7918C170.091 18.9713 169.946 19.1875 169.854 19.4254C169.762 19.6633 169.727 19.9171 169.751 20.169V24.5095H168.19L168.189 14.1765Z" fill="white"/>
<path d="M184.107 22.5028C183.895 23.1821 183.435 23.7696 182.808 24.1626C182.181 24.5557 181.427 24.7292 180.678 24.6529C180.156 24.6658 179.638 24.5721 179.159 24.3781C178.68 24.1841 178.252 23.8946 177.904 23.5296C177.556 23.1646 177.297 22.733 177.145 22.2645C176.993 21.7961 176.951 21.3021 177.022 20.8169C176.953 20.3302 176.995 19.8352 177.147 19.3654C177.299 18.8956 177.557 18.4619 177.903 18.0937C178.249 17.7255 178.675 17.4315 179.153 17.2314C179.63 17.0314 180.148 16.93 180.671 16.9342C182.873 16.9342 184.201 18.347 184.201 20.6807V21.1925H178.613V21.2747C178.589 21.5474 178.625 21.8219 178.72 22.0806C178.815 22.3394 178.967 22.5765 179.165 22.777C179.364 22.9774 179.605 23.1368 179.872 23.2447C180.14 23.3526 180.429 23.4068 180.721 23.4038C181.094 23.4459 181.473 23.3827 181.808 23.2223C182.143 23.0618 182.42 22.8114 182.603 22.5028L184.107 22.5028ZM178.613 20.1078H182.61C182.63 19.8583 182.594 19.6078 182.504 19.3722C182.415 19.1367 182.274 18.9214 182.09 18.74C181.907 18.5587 181.685 18.4155 181.439 18.3194C181.193 18.2234 180.928 18.1768 180.662 18.1825C180.392 18.1793 180.124 18.227 179.874 18.3226C179.624 18.4182 179.396 18.5599 179.205 18.7394C179.014 18.9188 178.864 19.1323 178.762 19.3673C178.66 19.6023 178.609 19.8541 178.613 20.1078H178.613Z" fill="white"/>
</svg>
